<svg xmlns="http://www.w3.org/2000/svg" role="img" aria-label="Ivory app icon" viewBox="0 0 512 512">
  <rect width="512" height="512" rx="120" fill="#FAFAF9"/>
  <path transform="translate(190.5 388.0) scale(0.3729 -0.3729)" d="M312.200927734375 708V688Q278.98938165194744 687 261.89520352128625 680.5Q244.801025390625 674 239.00103759765625 656.5Q233.2010498046875 639 233.2010498046875 602V106Q233.2010498046875 70 239.05289261429397 52.0Q244.90473542390046 34 261.9726102852527 28.0Q279.04048514660496 22 312.200927734375 20V0Q288.0008544921875 2 251.30072021484375 2.5Q214.6005859375 3 177.200439453125 3Q135.1533784866333 3 98.49696636199951 2.5Q61.84055423736572 2 39.1998291015625 0V20Q72.59979248046875 22 89.5784840685256 28.0Q106.55717565658244 34 112.37844134391622 52.0Q118.19970703125 70 118.19970703125 106V602Q118.19970703125 639 112.3529078706782 656.5Q106.50610871010639 674 89.45294449177194 680.5Q72.3997802734375 687 39.1998291015625 688V708Q61.84055423736572 707 98.49696636199951 706.0Q135.1533784866333 705 177.200439453125 705Q214.6005859375 705 251.30072021484375 706.0Q288.0008544921875 707 312.200927734375 708Z" fill="#0F766E"/>
</svg>
