<svg xmlns="http://www.w3.org/2000/svg" role="img" aria-label="Ivory" viewBox="-21 -768 2505 1016">
  <g fill="#1C1917" transform="scale(1 -1)">
    <path transform="translate(0 0)" d="M312.200927734375 708V688Q278.98938165194744 687 261.89520352128625 680.5Q244.801025390625 674 239.00103759765625 656.5Q233.2010498046875 639 233.2010498046875 602V106Q233.2010498046875 70 239.05289261429397 52.0Q244.90473542390046 34 261.9726102852527 28.0Q279.04048514660496 22 312.200927734375 20V0Q288.0008544921875 2 251.30072021484375 2.5Q214.6005859375 3 177.200439453125 3Q135.1533784866333 3 98.49696636199951 2.5Q61.84055423736572 2 39.1998291015625 0V20Q72.59979248046875 22 89.5784840685256 28.0Q106.55717565658244 34 112.37844134391622 52.0Q118.19970703125 70 118.19970703125 106V602Q118.19970703125 639 112.3529078706782 656.5Q106.50610871010639 674 89.45294449177194 680.5Q72.3997802734375 687 39.1998291015625 688V708Q61.84055423736572 707 98.49696636199951 706.0Q135.1533784866333 705 177.200439453125 705Q214.6005859375 705 251.30072021484375 706.0Q288.0008544921875 707 312.200927734375 708Z"/>
    <path transform="translate(369 0)" d="M493.00042724609375 515.800048828125V495.60003662109375Q474.00042724609375 492.5999755859375 457.7004089355469 476.4999084472656Q441.400390625 460.39984130859375 426.80035400390625 420.19970703125L268.6007080078125 -3.99993896484375Q260.6004638671875 -3.59991455078125 252.50021362304688 -3.59991455078125Q244.39996337890625 -3.59991455078125 235.5997314453125 -3.99993896484375L53.599853515625 438.800048828125Q37.79986572265625 477.60003662109375 22.199859619140625 486.2000427246094Q6.599853515625 494.800048828125 -4.400146484375 494.800048828125V515.800048828125Q19.60009765625 514.4000244140625 45.400360107421875 512.9000244140625Q71.20062255859375 511.4000244140625 101.6009521484375 511.4000244140625Q132.6009521484375 511.4000244140625 167.1009521484375 512.6000366210938Q201.6009521484375 513.800048828125 231.6009521484375 515.800048828125V494.800048828125Q208.00103759765625 494.800048828125 189.5010986328125 491.7000732421875Q171.00115966796875 488.60009765625 165.3011474609375 474.3002014160156Q159.60113525390625 460.00030517578125 172.4010009765625 424.800537109375L294.80084228515625 115.20050048828125L287.4007568359375 107.2003173828125L389.800048828125 379.7987060546875Q404.8001708984375 419.79913330078125 402.10015869140625 444.1994323730469Q399.400146484375 468.5997314453125 381.4001159667969 481.0998840332031Q363.40008544921875 493.60003662109375 328.60015869140625 495.60003662109375V515.800048828125Q345.80010986328125 514.800048828125 360.2001953125 514.2000427246094Q374.60028076171875 513.6000366210938 388.5003662109375 513.1000366210938Q402.40045166015625 512.6000366210938 416.8004150390625 512.6000366210938Q438.80035400390625 512.6000366210938 458.4004211425781 513.6000366210938Q478.00048828125 514.6000366210938 493.00042724609375 515.800048828125Z"/>
    <path transform="translate(882 0)" d="M276.8001708984375 529.800048828125Q343.600341796875 529.800048828125 395.9004211425781 502.1000671386719Q448.20050048828125 474.40008544921875 479.0005187988281 414.40008544921875Q509.800537109375 354.40008544921875 509.800537109375 257.4000244140625Q509.800537109375 160.39996337890625 479.0005187988281 100.79995727539062Q448.20050048828125 41.199951171875 395.9004211425781 13.5999755859375Q343.600341796875 -14 276.8001708984375 -14Q211 -14 158.19992065429688 13.5999755859375Q105.39984130859375 41.199951171875 74.59982299804688 100.79995727539062Q43.7998046875 160.39996337890625 43.7998046875 257.4000244140625Q43.7998046875 354.40008544921875 74.59982299804688 414.40008544921875Q105.39984130859375 474.40008544921875 158.19992065429688 502.1000671386719Q211 529.800048828125 276.8001708984375 529.800048828125ZM276.8001708984375 509.800048828125Q225.20050048828125 509.800048828125 192.00070190429688 450.60003662109375Q158.8009033203125 391.4000244140625 158.8009033203125 257.4000244140625Q158.8009033203125 123.4000244140625 192.00070190429688 64.70001220703125Q225.20050048828125 6 276.8001708984375 6Q328.39984130859375 6 361.5996398925781 64.70001220703125Q394.7994384765625 123.4000244140625 394.7994384765625 257.4000244140625Q394.7994384765625 391.4000244140625 361.5996398925781 450.60003662109375Q328.39984130859375 509.800048828125 276.8001708984375 509.800048828125Z"/>
    <path transform="translate(1454 0)" d="M349.2005615234375 529.800048828125Q378.00067138671875 529.800048828125 398.4006652832031 517.8999938964844Q418.8006591796875 505.99993896484375 429.6006164550781 487.29986572265625Q440.40057373046875 468.59979248046875 440.40057373046875 446.3997802734375Q440.40057373046875 417.3995361328125 422.90045166015625 396.8994445800781Q405.40032958984375 376.39935302734375 376.400146484375 376.39935302734375Q350.79986572265625 376.39935302734375 333.4997863769531 391.1994323730469Q316.19970703125 405.99951171875 316.19970703125 432.39959716796875Q316.19970703125 454.3997802734375 327.499755859375 469.5998840332031Q338.7998046875 484.79998779296875 353.59991455078125 494.2000732421875Q344.3997802734375 502.199951171875 330.3997802734375 500.79986572265625Q303.20001220703125 499.7998046875 280.2001953125 483.1999206542969Q257.20037841796875 466.60003662109375 241.20050048828125 441.1002502441406Q225.20062255859375 415.6004638671875 216.30068969726562 386.8006896972656Q207.4007568359375 358.00091552734375 207.4007568359375 332.60107421875V103Q207.4007568359375 54.20001220703125 234.20065307617188 37.600006103515625Q261.00054931640625 21 309.4005126953125 21V0Q286.4005126953125 1 243.70046997070312 2.5Q201.00042724609375 4 153.8004150390625 4Q117.60028076171875 4 81.60012817382812 2.5Q45.5999755859375 1 27.39990234375 0V21Q66.3997802734375 21 82.89971923828125 36.0Q99.399658203125 51 99.399658203125 93V406.800048828125Q99.399658203125 451.800048828125 84.19970703125 473.300048828125Q68.999755859375 494.800048828125 27.39990234375 494.800048828125V515.800048828125Q59.39990234375 512.800048828125 89.39990234375 512.800048828125Q122.60015869140625 512.800048828125 152.5003662109375 516.300048828125Q182.40057373046875 519.800048828125 207.4007568359375 526.800048828125V412.40069580078125Q218.80078125 440.8006591796875 239.00076293945312 467.70050048828125Q259.20074462890625 494.600341796875 287.3006896972656 512.2001953125Q315.400634765625 529.800048828125 349.2005615234375 529.800048828125Z"/>
    <path transform="translate(1924 0)" d="M500.20037841796875 515.800048828125V495.60003662109375Q481.20037841796875 492.5999755859375 464.9003601074219 476.4999084472656Q448.600341796875 460.39984130859375 434.00030517578125 420.19970703125L277.80078125 1.8004150390625L254.0003662109375 -21.60101318359375L58.7996826171875 438.800048828125Q40.19970703125 477.60003662109375 22.399749755859375 486.2000427246094Q4.59979248046875 494.800048828125 -7.2001953125 494.800048828125V515.800048828125Q18.4000244140625 512.800048828125 46.20025634765625 511.300048828125Q74.00048828125 509.800048828125 103.80059814453125 509.800048828125Q138.00079345703125 509.800048828125 172.40078735351562 511.800048828125Q206.80078125 513.800048828125 236.80078125 515.800048828125V494.800048828125Q213.20086669921875 494.800048828125 194.40090942382812 491.6000671386719Q175.6009521484375 488.40008544921875 170.200927734375 472.90020751953125Q164.8009033203125 457.40032958984375 180.00079345703125 420.0006103515625L304.0008544921875 115.20062255859375L297.00079345703125 112.00054931640625L397.79998779296875 379.7987060546875Q412.80010986328125 419.79913330078125 410.10009765625 444.1994323730469Q407.40008544921875 468.5997314453125 389.00006103515625 481.0998840332031Q370.60003662109375 493.60003662109375 335.80010986328125 495.60003662109375V515.800048828125Q353.00006103515625 514.800048828125 367.400146484375 514.2000427246094Q381.80023193359375 513.6000366210938 395.7003173828125 513.1000366210938Q409.60040283203125 512.6000366210938 424.0003662109375 512.6000366210938Q446.00030517578125 512.6000366210938 465.6003723144531 513.6000366210938Q485.200439453125 514.6000366210938 500.20037841796875 515.800048828125ZM277.80078125 1.8004150390625 242.20068359375 -92Q232.40069580078125 -117 221.90069580078125 -134.20001220703125Q211.40069580078125 -151.4000244140625 199.00067138671875 -162.4000244140625Q183.6007080078125 -176.39996337890625 161.70071411132812 -182.19998168945312Q139.80072021484375 -188 118.00048828125 -188Q97.20037841796875 -188 78.50018310546875 -180.5999755859375Q59.79998779296875 -173.199951171875 48.099822998046875 -158.29986572265625Q36.399658203125 -143.3997802734375 36.399658203125 -121.1995849609375Q36.399658203125 -94.99945068359375 52.99981689453125 -79.19937133789062Q69.5999755859375 -63.3992919921875 98.40020751953125 -63.3992919921875Q123.40045166015625 -63.3992919921875 140.30056762695312 -76.69937133789062Q157.20068359375 -89.99945068359375 157.20068359375 -115.79962158203125Q157.20068359375 -133.7996826171875 147.70059204101562 -146.99981689453125Q138.20050048828125 -160.199951171875 122.6002197265625 -167.20001220703125Q125.80029296875 -168.20001220703125 129.00039672851562 -168.30001831054688Q132.20050048828125 -168.4000244140625 134.2005615234375 -168.4000244140625Q162.20062255859375 -168.4000244140625 184.00067138671875 -149.70001220703125Q205.80072021484375 -131 221.20068359375 -90L257.00067138671875 6.2001953125Z"/>
  </g>
</svg>
